<?xml version="1.0" encoding="utf-8"?>
<!-- Generator: Adobe Illustrator 19.2.1, SVG Export Plug-In . SVG Version: 6.00 Build 0)  -->
<svg version="1.1" id="Avatar" xmlns="http://www.w3.org/2000/svg" xmlns:xlink="http://www.w3.org/1999/xlink" x="0px" y="0px"
	 viewBox="0 0 362 349" style="enable-background:new 0 0 362 349;" xml:space="preserve">
<style type="text/css">
	.st0{fill:#FF9AB5;stroke:#FFFFFF;stroke-miterlimit:10;}
	.st1{fill:#1C1341;}
	.st2{fill:#E9BAA8;}
	.st3{fill:#D58881;}
	.st4{fill:#30295E;}
	.st5{fill:#F1D3C8;}
	.st6{fill:#B49A61;}
	.st7{fill:#7E603C;}
	.st8{fill:#48416E;}
	.st9{fill:#FFFFFF;}
	.st10{fill:#D26070;}
</style>
<g id="Image">
	<ellipse class="st0" cx="180" cy="175.4" rx="170.5" ry="167"/>
	<g id="Camada_2">
		<g>
			<path class="st1" d="M107.5,228.4c0,0,7.3,9.3,14.8,12.7c7.5,3.4,70.5,12.5,115.4,0s7.3-45.9,7.3-45.9l-22.3-38.7l-111.6,27.9
				L107.5,228.4z"/>
			<path class="st2" d="M180,180.9L180,180.9c16.4,0,29.7,11.8,29.7,26.2v50.1c0,14.4-13.4,26.2-29.7,26.2l0,0
				c-16.4,0-29.7-11.8-29.7-26.2v-50.1C150.2,192.7,163.7,180.9,180,180.9z"/>
			<path class="st3" d="M180,180.9L180,180.9c16.4,0,29.7,11.8,29.7,26.2v41.5c-6.6,2.6-13.9,4.1-21.7,4.1c-14,0-27.1-6-37.8-15.2
				v-30.4C150.2,192.7,163.7,180.9,180,180.9z"/>
			<g>
				<path class="st3" d="M244.9,157.8c0.5,0.1,1,0.1,1.4,0.2l0,0l0,0c8.5,1.6,14.8,8.2,14.9,16.1c0.1,9.2-8.3,16.8-18.7,16.9
					s-19-7.3-19.2-16.4c-0.1-5.4,2.7-10.1,7.1-13.2c-0.5,4.9,0.3,11,7.4,11.7l-0.2-9.6C237.8,159.5,241.9,157.7,244.9,157.8z"/>
				<path class="st3" d="M115.3,157.1c-0.5,0.1-1,0.1-1.4,0.2l0,0l0,0c-8.5,1.5-14.9,8-15.2,15.9c-0.3,9.2,8,16.9,18.5,17.1
					c10.5,0.3,19.2-7,19.4-16.2c0.2-5.4-2.6-10.2-6.9-13.3c0.5,4.9-0.5,11-7.7,11.6l0.3-9.6C122.5,158.8,118.4,157,115.3,157.1z"/>
			</g>
			<path class="st2" d="M180,241.4c-35.4,0-64.9-38.4-64.9-68.7v-40.3c0-31.4,29.2-57.1,64.9-57.1l0,0c35.7,0,64.9,25.7,64.9,57.1
				v39.4C244.9,205,219.1,241.4,180,241.4z"/>
			<path class="st3" d="M217,185.3c-5,0.1-8.9,3.7-8.8,8.1s4.2,7.9,9.2,7.7s8.9-3.7,8.8-8.1C226.1,188.7,222,185.2,217,185.3z"/>
			<path class="st3" d="M142.6,186.5c-5,0.1-8.9,3.7-8.8,8.1s4.2,7.9,9.2,7.7c5-0.1,8.9-3.7,8.8-8.1
				C151.6,190,147.6,186.5,142.6,186.5z"/>
			<g>
				<path class="st4" d="M160.7,143.9c1.4,0.5,2,2,1.4,3.2s-2.2,1.7-3.6,1.2c0,0-8.2-3.4-16.1,0.9c-1.3,0.7-3,0.4-3.8-0.7
					c-0.8-1.1-0.4-2.6,0.9-3.3C149.9,139.3,160.7,143.8,160.7,143.9z"/>
				<path class="st4" d="M224.9,144.9c1.3,0.6,1.8,2.1,1.1,3.3c-0.8,1.2-2.4,1.6-3.7,0.9c0,0-7.9-4-16.1-0.3c-1.3,0.6-3,0.2-3.7-1
					s-0.2-2.6,1.2-3.2C214.5,139.7,224.9,144.9,224.9,144.9z"/>
			</g>
			<path class="st5" d="M184.8,178.1c1.2,2.9,3.3,8.1,3.1,9c-0.3,1.2-7.4,2.4-9.3,0.7c-1.3-1.1,0.3-5.8,1.7-9
				C182.2,174.6,183.2,174.2,184.8,178.1z"/>
			<path class="st4" d="M175.6,120.3c0,0,21.1-10.6,33.9-2s32.5,82.6,33.9,99.9c1.5,17.3-5.7,22.8-5.7,22.8s44.8-8.8,45.5-38.9
				s-47.8-99.9-47.8-99.9S190.7,102.5,175.6,120.3z"/>
			<path class="st4" d="M175.6,120.3c0,0-12.3-10.6-25.1-2s-32.5,82.6-33.9,99.9c-1.5,17.3,5.7,22.8,5.7,22.8s-44.8-8.8-45.5-38.9
				s47.8-99.9,47.8-99.9S175.1,90.4,175.6,120.3z"/>
			<path class="st4" d="M113.8,146.9l-13.3-5.9c0,0,4.5-8.1,5.1-30.1s35.5-41.3,43.1-44.2c7.7-2.8,15.9,2.1,15.9,2.1s6.4-7,18.8-7
				s37,8.8,49.3,23c12.3,14.2,19.1,42.5,24.5,52.1c5.4,9.6-5.5,12.4-9,8.1c-3.4-4.4-19.4-27.6-30.3-30.3
				c-10.9-2.6-26.1-5.5-42.4,5.5c0,0-4.2-11.4-14.5-12C150.8,107.9,113.8,146.9,113.8,146.9z"/>
			<path class="st4" d="M237.1,158.4c-0.9-0.2-1.6-0.4-2.5-0.7c-7.2-4.9-24.4-7.3-51.2-7.2c-0.6,0-1.1,0-1.4,0s-0.9,0-1.4,0
				c-26.8-0.2-44,2.3-51.2,7.2c-0.9,0.4-1.8,0.6-2.6,0.7c-2.5,0.4-6.2,1.4-6.2,1.4v5.2c0,0,3.3-0.2,4.2,1.7
				c0.9,1.8,1.6,9.4,3.9,13.9c3.2,6,8.4,10.9,17.6,11.9c10.1,1.1,17.5-1.1,23.3-5.8c6.9-5.7,7.4-14.1,6.5-21.1c0,0,2.3-1,6-1
				s6,1,6,1c-0.9,7.1-0.4,15.4,6.5,21.1c5.7,4.7,13.1,6.9,23.2,5.8c9.2-1,14.3-5.9,17.5-11.9c2.4-4.5,3-12.1,3.8-13.9
				c0.9-1.8,4-1.7,4-1.7v-5.2C243.2,159.7,239.6,158.8,237.1,158.4L237.1,158.4z M170.3,181.8L170.3,181.8c-3,4.3-10,8.6-20.2,8.4
				s-15.1-4.1-18.2-9.2c-3.3-5.4-4.6-13.8-2.3-18.2c2.3-4.3,10-7.5,21.1-7.4s17.5,4.6,19.7,7.7C175,169.5,173.5,177.2,170.3,181.8
				L170.3,181.8z M182,161.6L182,161.6c-2.9,0-6.4,0.5-7.1,0.8c0,0-2.7-5.6-13.1-7.9c-5.1-1.1-9.6-1.5-13.6-1.4
				c8.4-1.2,19.2-1.7,32.5-1.6c0.6,0,1.1,0,1.4,0s0.9,0,1.4,0c13.2-0.1,24.1,0.5,32.5,1.6c-4-0.1-8.6,0.3-13.6,1.4
				c-10.4,2.3-13.1,7.9-13.1,7.9C188.4,162.1,185,161.6,182,161.6L182,161.6z M232.1,181.1L232.1,181.1c-3.1,5.2-8,9-18.2,9.2
				s-17.2-4.1-20.2-8.4c-3.2-4.6-4.8-12.3-0.2-18.7c2.3-3.1,8.7-7.6,19.7-7.7c11.1-0.1,18.8,3.1,21.1,7.4
				C236.8,167.3,235.4,175.7,232.1,181.1z"/>
			<path class="st6" d="M288.8,306v-16.2c0-17.9-16.6-32.5-36.9-32.5H108.1c-20.3,0-36.9,14.6-36.9,32.5V306
				c29.6,21.3,67.5,34.1,108.8,34.1S259.2,327.3,288.8,306z"/>
			<path class="st7" d="M148.5,256.6c0,0,4.4,13,31.5,13s31.5-13,31.5-13V240l-1.7-0.9v3.7c-3,3.8-10.9,10.1-29.7,10.1
				s-26.7-6.3-29.7-10.1v-3.7l-1.7,0.9v16.6H148.5z"/>
			<g>
				<path class="st7" d="M255,265.5c0.3-0.3,0.9-0.3,1.2-0.1c0.4,0.3,0.4,0.7,0.1,1.1c0,0-7.5,6.9-7.5,23.4v34
					c-0.6,0.3-1.1,0.5-1.7,0.7v-34.7C247.1,272.8,255,265.5,255,265.5z"/>
				<path class="st7" d="M105,265.5c-0.3-0.3-0.9-0.3-1.2-0.1c-0.4,0.3-0.4,0.7-0.1,1.1c0,0,7.5,6.9,7.5,23.4v34
					c0.6,0.3,1.1,0.5,1.7,0.7v-34.7C112.9,272.8,105,265.5,105,265.5z"/>
			</g>
			<path class="st8" d="M128.4,78.7c28.4,18.3,66.9,31.9,114.5,22.9c-2.9-6.3-6.3-12.2-10.2-16.8c-1.2-1.4-2.6-2.7-4-4.1
				c-35.2,5.7-64.6-0.1-87.9-10.1C137.1,72.8,132.8,75.4,128.4,78.7z"/>
			<g>
				<path class="st4" d="M211.1,177.5c4.3,0,7.7-3.1,7.7-6.8c0-0.5-0.1-1-0.2-1.5l0.9-0.3c0.9-0.3,1.9-0.8,2.7-1.5
					c0.4-0.3,0.4-0.8,0.1-1.2c-0.4-0.3-1-0.4-1.4,0c-0.9,0.7-1.8,1.1-2.7,1.3l0,0c0.9-0.5,1.8-1.2,2.4-2.2c0.3-0.4,0.1-0.9-0.4-1.2
					c-0.5-0.2-1.1-0.1-1.3,0.4c-0.5,0.9-1.3,1.4-2,1.7l-0.1-0.1c0.6-0.4,1.2-1,1.4-1.8c0.2-0.5-0.2-0.9-0.7-1.1
					c-0.5-0.1-1.1,0.2-1.2,0.6c-0.2,0.6-0.7,1-1.1,1.2c-1.2-0.7-2.7-1.1-4.2-1.1c-4.3,0-7.7,3.1-7.7,6.8
					C203.4,174.5,206.9,177.5,211.1,177.5z"/>
				<path class="st4" d="M148.9,177.5c-4.3,0-7.7-3.1-7.7-6.8c0-0.5,0.1-1,0.2-1.5l-0.9-0.3c-0.9-0.3-1.9-0.8-2.7-1.5
					c-0.4-0.3-0.4-0.8-0.1-1.2c0.4-0.3,1-0.4,1.4,0c0.9,0.7,1.8,1.1,2.7,1.3l0,0c-0.9-0.5-1.8-1.2-2.4-2.2c-0.3-0.4-0.1-0.9,0.4-1.2
					c0.5-0.2,1.1-0.1,1.3,0.4c0.5,0.9,1.3,1.4,2,1.7l0.1-0.1c-0.6-0.4-1.2-1-1.4-1.8c-0.2-0.5,0.2-0.9,0.7-1.1
					c0.5-0.1,1.1,0.2,1.2,0.6c0.2,0.6,0.7,1,1.1,1.2c1.2-0.7,2.7-1.1,4.2-1.1c4.3,0,7.7,3.1,7.7,6.8
					C156.6,174.5,153.2,177.5,148.9,177.5z"/>
			</g>
			<g>
				<path class="st1" d="M193.7,207c0,6.6-6.1,12-13.6,12c-7.6,0-13.6-5.4-13.6-12c0-1.2,1.1-2.2,2.5-2.2h22.2
					C192.5,204.8,193.7,205.8,193.7,207z"/>
				<path class="st9" d="M170.3,204.8h19.5v2c0,1.1-1,1.9-2.2,1.9h-15.2c-1.2,0-2.2-0.8-2.2-1.9L170.3,204.8L170.3,204.8z"/>
				<path class="st10" d="M189.9,215.3c-2.5,2.3-6,3.7-9.9,3.7s-7.4-1.4-9.9-3.7c2.5-2.3,6-3.7,9.9-3.7S187.4,213,189.9,215.3z"/>
			</g>
		</g>
	</g>
</g>
</svg>
