<?xml version="1.0" encoding="utf-8"?>
<!-- Generator: Adobe Illustrator 19.2.1, SVG Export Plug-In . SVG Version: 6.00 Build 0)  -->
<svg version="1.1" id="Camada_1" xmlns="http://www.w3.org/2000/svg" xmlns:xlink="http://www.w3.org/1999/xlink" x="0px" y="0px"
	 viewBox="0 0 60.3 61.2" style="enable-background:new 0 0 60.3 61.2;" xml:space="preserve">
<style type="text/css">
	.st0{fill:#181616;}
</style>
<path class="st0" d="M29.2,1.5c-15.8,0-28.6,13-28.6,29c0,12.8,8.2,23.6,19.5,27.5c1.4,0.3,2-0.6,2-1.4c0-0.7,0-2.5-0.1-4.9
	c-8,1.7-9.6-3.9-9.6-3.9c-1.3-3.4-3.2-4.2-3.2-4.2c-2.6-1.8,0.2-1.7,0.2-1.7c2.9,0.2,4.4,3,4.4,3c2.6,4.5,6.7,3.1,8.3,2.4
	c0.2-1.9,1-3.1,1.8-3.9c-6.4-0.8-13-3.2-13-14.3c0-3.2,1.1-5.7,2.9-7.7c-0.3-0.8-1.3-3.7,0.3-7.7c0,0,2.4-0.8,7.8,2.9
	c2.3-0.6,4.7-1,7.2-1s4.9,0.3,7.2,1c5.5-3.8,7.8-2.9,7.8-2.9c1.5,4,0.6,6.9,0.3,7.7c1.8,2,2.9,4.6,2.9,7.7c0,11.1-6.7,13.6-13,14.3
	c1,0.9,2,2.7,2,5.4c0,3.9-0.1,7-0.1,7.9c0,0.8,0.5,1.7,2,1.4c11.3-3.8,19.5-14.7,19.5-27.5C57.8,14.5,45,1.5,29.2,1.5z"/>
</svg>
